<?xml version="1.0" encoding="UTF-8"?>
<svg id="Layer_4_Image" data-name="Layer 4 Image" xmlns="http://www.w3.org/2000/svg" viewBox="0 0 150.31 150.02">
  <path d="M70,.14c59.52-3.46,99.81,59.36,70.54,111.76-29.27,52.4-106.17,50.33-132.76-3.43C-15.81,60.77,16.92,3.22,70,.14ZM66.65,5.86l-.67-.05-5.57,15.64c-.29.7-1.43.75-1.39,1.61.23.2,5.69-.41,5.99-.59,1.04-.64-1.07-.55-1.34-1.55-.6-2.26,2.25-1.64,3.5-2.04.57-.18,1.58-1.37,2.12-1.06.32.18,1.7,3.54,2.35,3.77.41.14,4.1-.29,4.75-.44.32-.07.62.02.84-.36.26-.54-1.46-.69-1.69-1l-8.89-13.92ZM88.97,7.27c-.22-.35-7.17-1.14-8.14-1.45-.15,1.21,1.64,1.02,1.17,2.48l-2.13,11.97c-.34.56-1.84-.04-1.44,1.11l12.2,1.92c-.13-.96,1.28-4.59.37-5.02-.41-.19-.85,1.55-1.44,1.67-.32.25-.86.58-1.25.66-.77.16-3.55.06-3.67-.79l1.94-11.61c.35-.09,2.3-.17,2.39-.25.02-.02.03-.64-.01-.7ZM107.43,19.72c.01-1.04,2.23-4.38,1.81-5.03-4.25-2-8.56-4.04-12.92-5.73-.32.09-2.41,4.62-2.07,5.01.88-.09,1.22-1.15,1.98-1.49,1.25-.57,2.28-.2,3.52.06l-.04.77-4.75,10.72-2.38-.23c-.03.22-.03.31.11.48.74.93,6.64,2.83,8.03,3.59-.18-1.55-1.57-1.2-1.14-3.18l4.38-9.76c.83-.8,2.59,1.3,2.74,2.3.13.85-.42,2.46.73,2.5ZM52.05,10.64c-3.79-.16-10.03,2.24-9.03,6.99.88,4.16,6.8,2.38,9.48,3.46,3.41,1.37.23,4.86-3.26,3.98-1.2-.3-1.78-1.25-2.92-1.51-.2.22.95,3.9,1.35,4.04,1.69.57,5.99-1.27,7.39-2.37,3.31-2.61,3.46-6.91-1.06-8.03-1.69-.42-7.16.08-7.64-1.48-.72-2.36,2.45-3.06,4.23-2.55,1.12.33,1.58,1.48,2.68,1.51l-1.22-4.05ZM40.25,21.7c-.98.09-6.19,4.3-7.22,5.21C2.91,53.68,4.1,103.27,37.62,126.55c1,.7,3.12,2.52,3.97.7s-2.31-3.06-3.53-4.02c-7.69-6.1-13.89-13.48-18.07-22.43-12.83-27.45-3.52-60.04,21.51-76.67.68-1.03.06-2.55-1.26-2.43ZM109.75,21.7c-1.34.04-1.75,1.42-1.14,2.47,23.47,15.5,33.18,45.09,23.57,71.7-4.38,12.12-12.82,22.56-23.42,29.77-.83,1.02-.11,2.43,1.2,2.41,1.07-.02,7.12-5.08,8.27-6.12,27.82-25.46,27.25-69.55-.72-94.66-1.08-.97-6.72-5.6-7.75-5.57ZM66.85,38.25c-2.26-1.93-4.52-2.07-6.87-.21-6.6,5.24-12.61,13.63-19.17,19.17-1.54,2.04-1.29,4.89.47,6.72,10.93,9.08,21.31,18.91,32.42,27.72,1.12.4,1.99.32,3.11.12.54-.1.66-.6,1.27-.19,2.38,1.58.58,2.04.37,3.76-.49,4.09,5.36,6.59,8.72,6.81,10.82.73,21.39-11.51,16.95-21.98-1.1-2.58-3.03-5.11-6.14-4.61-.67.11-1.65.96-1.9.92-.1-.02-1.28-1.14-1.37-1.28-.52-.9.17-1.56.24-2.44.13-1.63-.74-2.82-1.67-4.03-8.01-10.44-18.32-20.01-26.44-30.48ZM104.01,95.72c-1.42.43-.99,3.09.86,2.55,1.59-.46.89-3.08-.86-2.55ZM99.58,101.85c1.01,1,3.23-.39,1.97-1.85s-3.13.69-1.97,1.85ZM105.45,100.52c-.96.29-.96,2.16.2,2.35,2.4.39,2.12-3.05-.2-2.35ZM96.1,103.63c-.96.29-.96,2.16.2,2.35,2.4.39,2.12-3.05-.2-2.35ZM101.61,104.34c-1.41.42-.82,3.01.85,2.56,1.46-.39,1.19-3.18-.85-2.56ZM108.57,107.36c1.11-1.11-.66-3.36-1.97-1.85s.96,2.86,1.97,1.85ZM99.23,110.48c1.23-1.23-.92-3.42-2.12-1.76-1,1.38,1.12,2.75,2.12,1.76ZM103.51,108.92c-1.58.17-1.55,2.93.44,2.57,1.69-.3,1.23-2.75-.44-2.57ZM71.13,126.83c-1.14-.35-4.03.26-5.39,0-.37,1.01,1.13,1.02,1.21,1.36.53,5.24-2.85,13.75,4.93,14.67,3.86.46,7.56-.48,8-4.89l.23-9.55,1.55-.63c.3.12.28.36.36.6.61,1.78,1.81,9.25,1.93,11.26.02.37.07.79-.04,1.15-.14.43-1.43.84-.91,1.36.31.32,6.21-1.15,7.19-.96.45-1.13-1.55-.84-1.68-1.36.17-1.66-2.38-12.22-2.04-12.77.16-.26,1.01-.54,1.21-.96.71,1.2.94,3.24,1.61,4.38.18.31.25.49.67.41-.42-3.16,1.77-4.67,4.55-5.27l-2.39,15.09,11.59-4.05c.45-.35-.96-4.49-1.27-4.91-.15-.21-.67-.21-.74-.14-.07.07.03,1.52-.06,1.98-.37,2.03-2.99,2.86-4.73,3.29.41-4.81,1.78-9.51,2.36-14.29.04-.37.24-.93-.32-.8l-10.9,3.97c-2.65-.39-5.56.96-8.05,1.29-1.45.19-3.17-.11-4.66.01-.19,1.03.28.58.89.9.76.41.92,1.05,1,1.88.26,2.44-.56,5.95-.27,8.54-.55,3.25-5.25,3.2-5.66-.21-.36-3,.68-7.34.22-10.53.02-.28-.11-.74-.37-.83ZM56.18,137.17c-.14.08-.15.89-.82.88-.39,0-1.58-.71-1.85-1.03-1.66-1.93-.07-7.16,1.24-9.07,1.89-2.77,5.88-1.95,6.19,1.4.11,1.23-.82,5.7-1.78,6.37-.61.42-1.96-.04-1.39,1.11.17.36,2.17,3.11,2.36,3.15,6.54-2.48,7.36-11.67.73-14.87-10.69-5.15-17.24,8.52-8.86,13.65.92.56,2.57.96,3.17,1.38.51.36,1.49,2.11,2.05,2.74,2.21,2.49,5.55,4.53,8.99,4.31-.03-.2.05-.64,0-.71-.08-.1-1.78-.59-2.32-.92-.96-.57-1.96-1.5-2.7-2.33-.81-.91-4.01-5.9-4.48-6.07-.16-.06-.38-.09-.53,0Z" fill="#fdfdfd"/>
  <path d="M66.85,38.25c8.12,10.46,18.43,20.04,26.44,30.48.93,1.21,1.8,2.4,1.67,4.03-.07.88-.76,1.55-.24,2.44.09.15,1.27,1.27,1.37,1.28.25.04,1.23-.81,1.9-.92,3.11-.49,5.04,2.04,6.14,4.61,4.45,10.46-6.13,22.71-16.95,21.98-3.36-.23-9.21-2.72-8.72-6.81.2-1.72,2.01-2.18-.37-3.76-.61-.4-.73.09-1.27.19-1.12.21-1.99.29-3.11-.12-11.12-8.82-21.49-18.64-32.42-27.72-1.76-1.82-2.01-4.68-.47-6.72,6.56-5.54,12.57-13.93,19.17-19.17,2.35-1.87,4.61-1.72,6.87.21ZM62.55,39.89l-19.22,19.12c-1,.99-.67,2.18.36,3.01,10.03,7.94,19.26,17.5,29.24,25.4,1.2.95,2.37,2.38,3.84.96l14.86-14.85c.45-.73.31-1.77-.25-2.41l-26.6-30.67c-.51-.59-1.49-.77-2.23-.55ZM92.25,77.27l-12.03,11.95c-.26.51,1.36,2.2,1.94,1.45l11.75-11.76c.29-.56-1.21-1.73-1.66-1.64ZM98.74,78.46c-.32.05-.65.36-.9.56l-16.06,16.05c-.82,1.34.62,2.31,1.68,2.9,9.28,5.12,22.02-6.97,17.87-16.67-.34-.8-1.68-2.97-2.59-2.84Z" fill="#161616"/>
  <path d="M40.25,21.7c1.31-.13,1.94,1.4,1.26,2.43C16.48,40.75,7.17,73.34,20,100.8c4.18,8.95,10.38,16.33,18.07,22.43,1.22.97,4.34,2.29,3.53,4.02s-2.97,0-3.97-.7C4.1,103.27,2.91,53.68,33.03,26.91c1.03-.91,6.24-5.12,7.22-5.21Z" fill="#161616"/>
  <path d="M109.75,21.7c1.03-.03,6.67,4.6,7.75,5.57,27.97,25.12,28.54,69.2.72,94.66-1.15,1.05-7.19,6.11-8.27,6.12-1.3.02-2.03-1.39-1.2-2.41,10.6-7.22,19.04-17.66,23.42-29.77,9.61-26.61-.09-56.19-23.57-71.7-.61-1.05-.2-2.43,1.14-2.47Z" fill="#161616"/>
  <path d="M71.13,126.83c.26.08.4.55.37.83.45,3.19-.59,7.53-.22,10.53.41,3.41,5.12,3.46,5.66.21-.29-2.59.52-6.11.27-8.54-.09-.83-.24-1.48-1-1.88-.61-.32-1.07.12-.89-.9,1.49-.13,3.21.18,4.66-.01,2.49-.32,5.4-1.68,8.05-1.29l10.9-3.97c.56-.13.36.44.32.8-.58,4.78-1.95,9.48-2.36,14.29,1.74-.43,4.37-1.26,4.73-3.29.08-.46-.01-1.91.06-1.98.07-.06.59-.06.74.14.31.43,1.71,4.57,1.27,4.91l-11.59,4.05,2.39-15.09c-2.78.6-4.98,2.11-4.55,5.27-.41.08-.49-.1-.67-.41-.67-1.14-.9-3.18-1.61-4.38-.2.42-1.05.7-1.21.96-.34.55,2.22,11.12,2.04,12.77.13.53,2.13.23,1.68,1.36-.98-.19-6.88,1.27-7.19.96-.51-.52.78-.93.91-1.36.11-.35.07-.78.04-1.15-.12-2.01-1.32-9.47-1.93-11.26-.08-.24-.06-.48-.36-.6l-1.55.63-.23,9.55c-.44,4.4-4.14,5.34-8,4.89-7.78-.92-4.39-9.44-4.93-14.67-.08-.34-1.58-.34-1.21-1.36,1.36.26,4.25-.35,5.39,0Z" fill="#161616"/>
  <path d="M56.18,137.17c.15-.09.37-.06.53,0,.47.17,3.67,5.17,4.48,6.07.74.83,1.74,1.76,2.7,2.33.54.32,2.24.82,2.32.92.06.07-.03.51,0,.71-3.44.23-6.78-1.82-8.99-4.31-.56-.63-1.54-2.38-2.05-2.74-.6-.43-2.25-.82-3.17-1.38-8.38-5.13-1.83-18.81,8.86-13.65,6.63,3.19,5.81,12.38-.73,14.87-.19-.04-2.19-2.79-2.36-3.15-.56-1.16.79-.69,1.39-1.11.95-.67,1.89-5.14,1.78-6.37-.31-3.34-4.3-4.16-6.19-1.4-1.31,1.92-2.9,7.14-1.24,9.07.27.32,1.46,1.03,1.85,1.03.67,0,.69-.8.82-.88Z" fill="#161616"/>
  <path d="M66.65,5.86l8.89,13.92c.23.32,1.95.47,1.69,1-.22.38-.51.29-.84.36-.65.14-4.34.58-4.75.44-.65-.23-2.03-3.58-2.35-3.77-.54-.31-1.54.88-2.12,1.06-1.25.39-4.1-.22-3.5,2.04.27,1,2.38.91,1.34,1.55-.3.18-5.77.79-5.99.59-.04-.86,1.1-.9,1.39-1.61l5.57-15.64.67.05ZM68.37,16.6l-2.04-3.59-1.56,4.07,3.59-.48Z" fill="#161616"/>
  <path d="M107.43,19.72c-1.16-.04-.6-1.65-.73-2.5-.15-1-1.91-3.1-2.74-2.3l-4.38,9.76c-.43,1.98.96,1.63,1.14,3.18-1.39-.76-7.3-2.65-8.03-3.59-.14-.18-.14-.26-.11-.48l2.38.23,4.75-10.72.04-.77c-1.24-.26-2.28-.63-3.52-.06-.75.34-1.1,1.4-1.98,1.49-.34-.39,1.75-4.92,2.07-5.01,4.35,1.69,8.66,3.73,12.92,5.73.42.66-1.8,3.99-1.81,5.03Z" fill="#161616"/>
  <path d="M52.05,10.64l1.22,4.05c-1.09-.03-1.55-1.19-2.68-1.51-1.78-.52-4.95.18-4.23,2.55.47,1.56,5.95,1.06,7.64,1.48,4.52,1.13,4.37,5.43,1.06,8.03-1.4,1.1-5.71,2.94-7.39,2.37-.4-.14-1.55-3.82-1.35-4.04,1.13.26,1.72,1.21,2.92,1.51,3.49.88,6.68-2.61,3.26-3.98-2.68-1.08-8.6.71-9.48-3.46-1.01-4.75,5.24-7.15,9.03-6.99Z" fill="#161616"/>
  <path d="M88.97,7.27c.04.06.04.68.01.7-.08.08-2.03.16-2.39.25l-1.94,11.61c.12.85,2.9.95,3.67.79.39-.08.93-.41,1.25-.66.58-.12,1.02-1.87,1.44-1.67.91.43-.49,4.06-.37,5.02l-12.2-1.92c-.41-1.15,1.1-.55,1.44-1.11l2.13-11.97c.47-1.45-1.32-1.27-1.17-2.48.97.31,7.92,1.1,8.14,1.45Z" fill="#161616"/>
  <path d="M99.23,110.48c-1,1-3.11-.37-2.12-1.76,1.2-1.66,3.35.53,2.12,1.76Z" fill="#161616"/>
  <path d="M104.01,95.72c1.74-.53,2.45,2.09.86,2.55-1.85.54-2.28-2.12-.86-2.55Z" fill="#161616"/>
  <path d="M108.57,107.36c-1.01,1.01-3.23-.4-1.97-1.85s3.08.74,1.97,1.85Z" fill="#161616"/>
  <path d="M99.58,101.85c-1.16-1.16.76-3.25,1.97-1.85s-.96,2.85-1.97,1.85Z" fill="#161616"/>
  <path d="M101.61,104.34c2.05-.61,2.31,2.17.85,2.56-1.68.45-2.26-2.14-.85-2.56Z" fill="#161616"/>
  <path d="M103.51,108.92c1.67-.18,2.13,2.27.44,2.57-1.99.36-2.02-2.4-.44-2.57Z" fill="#161616"/>
  <path d="M105.45,100.52c2.32-.7,2.6,2.74.2,2.35-1.17-.19-1.16-2.06-.2-2.35Z" fill="#161616"/>
  <path d="M96.1,103.63c2.32-.7,2.6,2.74.2,2.35-1.17-.19-1.16-2.06-.2-2.35Z" fill="#161616"/>
  <path d="M62.55,39.89c.73-.22,1.71-.04,2.23.55l26.6,30.67c.56.64.7,1.68.25,2.41l-14.86,14.85c-1.47,1.42-2.65-.01-3.84-.96-9.98-7.9-19.21-17.46-29.24-25.4-1.03-.82-1.36-2.01-.36-3.01l19.22-19.12ZM83.4,66.47c-.29.08-.88.86-1.29,1.13-7.9,5.3-11.07-1.51-18.38-.65-2.23.26-4.96,1.69-6.13,3.66l16.17,14.04c.98.62,2.37.77,3.24-.11l10.91-11.13c.19-.83.23-1.73-.16-2.5-.12-.24-3.29-3.91-3.55-4.12s-.39-.43-.8-.32Z" fill="#fdfdfd"/>
  <path d="M98.74,78.46c.91-.13,2.25,2.04,2.59,2.84,4.16,9.7-8.58,21.8-17.87,16.67-1.06-.59-2.5-1.55-1.68-2.9l16.06-16.05c.25-.21.58-.52.9-.56ZM100.16,87.09c-1.08.29-2.34,3.45-1.21,3.79,1.64.49,2.96-4.26,1.21-3.79ZM98.09,92.09c-.81-.81-3.84,1.72-3.01,2.89.88,1.24,3.81-2.09,3.01-2.89ZM92.03,95.74c-2.03.43-2.84,2.96-.17,2.23,1.75-.48,3.07-2.84.17-2.23Z" fill="#fdfdfd"/>
  <path d="M92.25,77.27c.45-.09,1.94,1.08,1.66,1.64l-11.75,11.76c-.58.75-2.21-.94-1.94-1.45l12.03-11.95Z" fill="#fdfdfd"/>
  <polygon points="68.37 16.6 64.78 17.08 66.34 13.01 68.37 16.6" fill="#fdfdfd"/>
  <path d="M83.4,66.47c.41-.11.54.11.8.32s3.43,3.88,3.55,4.12c.4.77.36,1.67.16,2.5l-10.91,11.13c-.87.89-2.26.74-3.24.11l-16.17-14.04c1.17-1.97,3.89-3.4,6.13-3.66,7.31-.86,10.49,5.95,18.38.65.41-.27.99-1.05,1.29-1.13Z" fill="#161616"/>
  <path d="M100.16,87.09c1.75-.47.43,4.27-1.21,3.79-1.13-.33.13-3.49,1.21-3.79Z" fill="#161616"/>
  <path d="M98.09,92.09c.8.8-2.13,4.13-3.01,2.89-.83-1.17,2.2-3.7,3.01-2.89Z" fill="#161616"/>
  <path d="M92.03,95.74c2.9-.61,1.59,1.75-.17,2.23-2.67.73-1.86-1.8.17-2.23Z" fill="#161616"/>
</svg>